PathFileType	4	(X/Y/Z)	C:/Users/opensim2020/Desktop/walking_exp_matlab/subject06_walking13_straight_03.trc																																																																																																																																																				
DataRate	CameraRate	NumFrames	NumMarkers	Units	OrigDataRate	OrigDataStartFrame	OrigNumFrames																																																																																																																																																
100	100	7	50	mm	100	2293	172																																																																																																																																																
Frame#	Time	LFHD			RFHD			LBHD			RBHD			C7			T10			CLAV			STRN			RBAK			LSHO			LUPA			LELB			LFRM			LWRA			LWRB			LFIN			RSHO			RUPA			RELB			RFRM			RWRA			RWRB			RFIN			LASI			RASI			LPSI			RPSI			LTHI			LKNE			LTIB			LANK			LHEE			LTOE			RTHI			RKNE			RTIB			RANK			RHEE			RTOE			*39			*40			*41			*42			*43			*44			*45			*46			*47			*48			*49		
		X1	Y1	Z1	X2	Y2	Z2	X3	Y3	Z3	X4	Y4	Z4	X5	Y5	Z5	X6	Y6	Z6	X7	Y7	Z7	X8	Y8	Z8	X9	Y9	Z9	X10	Y10	Z10	X11	Y11	Z11	X12	Y12	Z12	X13	Y13	Z13	X14	Y14	Z14	X15	Y15	Z15	X16	Y16	Z16	X17	Y17	Z17	X18	Y18	Z18	X19	Y19	Z19	X20	Y20	Z20	X21	Y21	Z21	X22	Y22	Z22	X23	Y23	Z23	X24	Y24	Z24	X25	Y25	Z25	X26	Y26	Z26	X27	Y27	Z27	X28	Y28	Z28	X29	Y29	Z29	X30	Y30	Z30	X31	Y31	Z31	X32	Y32	Z32	X33	Y33	Z33	X34	Y34	Z34	X35	Y35	Z35	X36	Y36	Z36	X37	Y37	Z37	X38	Y38	Z38	X39	Y39	Z39	X40	Y40	Z40	X41	Y41	Z41	X42	Y42	Z42	X43	Y43	Z43	X44	Y44	Z44	X45	Y45	Z45	X46	Y46	Z46	X47	Y47	Z47	X48	Y48	Z48	X49	Y49	Z49	X50	Y50	Z50
																																																																																																																																																							
108	1.07	398.60147	1656.2323	-1068.70361	380.6398	1641.75842	-938.7511	263.01215	1614.62158	-1089.00366	246.68994	1604.70715	-961.10156	244.94737	1449.04321	-1038.22205	208.93126	1119.09973	-1034.78992	352.9715	1370.1593	-1026.24365	393.89359	1196.45862	-1034.33679	161.37894	1275.83557	-972.57959	315.33392	1407.73352	-1192.13	349.61484	1211.30469	-1272.24182	371.9277	1101.4021	-1291.69153	453.97763	976.84863	-1319.11816	561.06256	902.1767	-1282.57056	507.90918	869.8866	-1316.47168	581.90955	819.89783	-1324.65771	287.48706	1397.552	-870.89484	231.96193	1199.16028	-793.2334	235.83052	1076.86572	-780.5625	238.75119	956.7113	-761.09393	286.74884	810.70135	-784.17426	229.42932	818.9856	-749.43445	257.01813	739.00739	-743.50922	389.03552	961.30402	-1139.25073	387.98676	968.28473	-918.75409	230.91576	986.15607	-1111.4845	235.99539	985.03278	-943.12274	307.71356	644.19562	-1189.88416	291.48029	481.32971	-1164.67102	213.46251	234.91455	-1149.8512	177.9326	66.51101	-1102.53479	134.82841	55.78226	-1057.43738	320.595	35.07882	-1099.8324	430.50595	650.57056	-854.98608	483.80438	536.3974	-876.45135	413.32581	281.17548	-882.97949	371.75732	100.44839	-927.62018	334.1105	81.55651	-977.40192	512.51038	41.79448	-912.92523	295.37103	1702.28357	-1021.815	NaN	NaN	NaN	NaN	NaN	NaN	NaN	NaN	NaN	NaN	NaN	NaN	NaN	NaN	NaN	NaN	NaN	NaN	NaN	NaN	NaN	NaN	NaN	NaN	NaN	NaN	NaN	NaN	NaN	NaN
109	1.08	409.44659	1655.13	-1067.9248	391.30511	1640.38184	-938.008	273.90482	1613.48572	-1088.48474	257.40814	1603.28333	-960.61261	255.88753	1447.90002	-1038.04541	219.5645	1117.89844	-1034.76965	363.83359	1368.89807	-1026.02222	404.58508	1195.16931	-1034.40161	172.07161	1274.80322	-972.81805	326.24731	1406.78894	-1191.79614	362.15714	1210.96729	-1272.16992	385.4191	1101.35535	-1291.50916	471.02686	979.02905	-1318.66589	580.82794	908.46997	-1282.01465	528.58844	873.91638	-1315.34204	604.25275	826.49249	-1323.36047	298.10733	1396.23364	-870.73572	240.36453	1198.43042	-793.48303	242.57352	1076.19312	-780.8609	243.49922	955.88861	-761.48077	289.00174	809.07697	-784.27881	231.67879	818.3125	-749.71509	257.89481	737.88135	-743.63348	399.37332	959.77856	-1139.31604	398.64764	967.13116	-918.7002	240.64917	984.97382	-1111.09094	246.65976	983.89294	-942.67133	316.0379	643.49994	-1189.26306	297.3992	480.29803	-1164.21448	216.04343	234.89124	-1149.96777	178.2639	66.85479	-1102.54163	135.09679	56.4464	-1057.43188	320.55386	34.71905	-1099.72314	440.63779	649.2019	-854.83282	493.11533	534.68982	-876.8028	434.44803	275.95279	-883.06848	404.91794	92.71416	-927.41156	368.63303	71.96132	-977.27869	548.66565	41.03727	-911.94727	306.10202	1701.0498	-1021.06628	NaN	NaN	NaN	NaN	NaN	NaN	NaN	NaN	NaN	NaN	NaN	NaN	NaN	NaN	NaN	NaN	NaN	NaN	NaN	NaN	NaN	NaN	NaN	NaN	NaN	NaN	NaN	NaN	NaN	NaN
110	1.09	420.35898	1653.91284	-1067.05188	401.98715	1638.86951	-937.2002	284.92722	1612.19727	-1088.01147	268.21548	1601.71021	-960.19482	266.97736	1446.57068	-1037.95874	230.31754	1116.62769	-1034.66345	374.7865	1367.50562	-1025.74609	415.38834	1193.72156	-1034.33521	182.29713	1274.16296	-972.82239	337.25003	1405.67566	-1191.47986	374.55008	1210.3667	-1271.93433	398.97711	1100.95032	-1291.16321	487.73407	981.08496	-1318.03796	599.62524	914.43427	-1280.89612	548.93567	878.02228	-1314.15076	626.25726	833.18994	-1321.82581	308.72772	1394.84375	-870.53613	248.5562	1197.58777	-793.8985	249.45634	1075.27332	-781.34198	248.39586	955.12231	-761.73206	291.62845	807.52789	-784.17914	234.25732	817.72638	-749.97687	259.28488	736.86102	-743.71625	410.06647	958.20044	-1139.45398	409.48026	965.87848	-918.65222	251.08899	983.68427	-1110.57324	257.45877	982.64246	-942.198	323.67175	642.4541	-1188.99951	303.15076	479.34125	-1164.13159	218.25349	234.99937	-1150.11145	178.48335	67.27306	-1102.57593	135.28862	57.13281	-1057.34521	320.48267	34.41127	-1099.71606	450.07468	647.15442	-854.68805	501.65167	532.26526	-877.10345	455.58524	270.88724	-883.07483	438.20517	86.0555	-926.99359	403.27478	63.88211	-977.1319	584.49957	40.84056	-911.1571	316.84494	1699.63489	-1020.3031	NaN	NaN	NaN	NaN	NaN	NaN	NaN	NaN	NaN	NaN	NaN	NaN	NaN	NaN	NaN	NaN	NaN	NaN	NaN	NaN	NaN	NaN	NaN	NaN	NaN	NaN	NaN	NaN	NaN	NaN
111	1.1	431.33139	1652.65527	-1066.1228	412.74011	1637.33691	-936.38763	295.95889	1610.75171	-1087.47925	278.98776	1600.0127	-959.71167	277.95746	1445.08997	-1037.7124	241.09396	1115.29468	-1034.38037	385.76651	1366.04297	-1025.38379	426.30478	1192.17212	-1034.14099	193.76234	1272.12341	-973.27533	348.24777	1404.41589	-1191.04053	386.89935	1209.59387	-1271.64233	412.19873	1100.38672	-1290.83081	504.13306	983.03845	-1317.2948	618.13257	920.44293	-1279.75183	568.802	882.01575	-1312.70776	647.56219	839.8642	-1320.1427	319.42487	1393.34851	-870.27814	256.70267	1196.70581	-794.27478	256.5192	1074.42322	-781.58502	253.55125	954.32361	-761.88934	294.74472	806.1452	-783.84778	237.21365	817.16028	-750.08594	260.93561	735.83228	-743.62372	420.54431	956.45721	-1139.20374	420.23465	964.24188	-918.34497	261.66019	982.31281	-1109.99146	268.42899	981.2959	-941.6792	331.35529	641.36249	-1188.72375	308.89542	478.45847	-1164.28992	220.39949	235.27029	-1150.22852	178.81081	67.78825	-1102.63391	135.54829	57.94518	-1057.39868	320.58148	34.27097	-1099.85156	458.71124	644.45862	-854.61511	509.5766	529.23529	-877.35114	476.48871	266.21777	-883.11694	471.29993	80.47074	-926.45654	437.55353	57.12712	-976.8186	619.82324	41.50664	-910.56586	327.74298	1698.12048	-1019.56262	NaN	NaN	NaN	NaN	NaN	NaN	NaN	NaN	NaN	NaN	NaN	NaN	NaN	NaN	NaN	NaN	NaN	NaN	NaN	NaN	NaN	NaN	NaN	NaN	NaN	NaN	NaN	NaN	NaN	NaN
112	1.11	442.39572	1651.19739	-1065.21826	423.5025	1635.63684	-935.52087	307.05261	1609.18518	-1086.92053	289.83511	1598.21118	-959.19995	289.07678	1443.44971	-1037.41443	252.16168	1113.79834	-1033.98022	396.92902	1364.4231	-1025.0343	437.2905	1190.51965	-1033.88477	204.09116	1271.11035	-973.0932	359.26077	1403.02771	-1190.60608	399.0412	1208.60779	-1271.3158	425.16199	1099.60144	-1290.40735	520.19269	984.78912	-1316.37793	636.38055	926.42084	-1278.57385	588.09265	885.98602	-1311.22546	668.26556	846.43024	-1318.25696	330.06818	1391.73938	-869.96423	264.87936	1195.82715	-794.27527	263.52457	1073.62915	-781.63672	258.71722	953.55927	-761.79639	298.16016	804.65942	-783.35193	240.53148	816.54462	-750.13324	263.08868	734.84705	-743.45605	430.87564	954.59991	-1138.57153	431.26794	962.55334	-917.99231	272.6431	980.90417	-1109.33875	279.38028	979.79816	-940.90729	339.08093	640.26666	-1188.56445	314.64566	477.48056	-1164.25977	222.73564	235.41005	-1150.30603	179.19316	68.36492	-1102.67969	135.87601	58.8934	-1057.42603	320.61169	34.01589	-1099.83801	466.52939	641.10114	-854.55115	517.17896	525.77716	-877.66943	496.92685	262.08395	-883.14044	503.91422	76.20658	-925.85333	471.35977	51.76823	-976.43848	654.26941	43.37513	-910.25848	338.60397	1696.48193	-1018.77496	NaN	NaN	NaN	NaN	NaN	NaN	NaN	NaN	NaN	NaN	NaN	NaN	NaN	NaN	NaN	NaN	NaN	NaN	NaN	NaN	NaN	NaN	NaN	NaN	NaN	NaN	NaN	NaN	NaN	NaN
113	1.12	453.45694	1649.68689	-1064.19958	434.39844	1633.92126	-934.63605	318.24747	1607.50208	-1086.34558	300.74295	1596.33447	-958.65588	299.39899	1442.07727	-1037.36499	263.10159	1112.00061	-1033.45569	408.11761	1362.73425	-1024.49426	448.40265	1188.75989	-1033.55786	214.87418	1269.47131	-973.16229	370.46747	1401.53394	-1190.14111	411.16852	1207.43701	-1270.92065	437.99524	1098.63416	-1289.90759	535.86334	986.36011	-1315.35583	653.75098	931.95386	-1276.89026	606.92749	889.823	-1309.56641	688.58807	853.06781	-1316.28894	340.90634	1390.06885	-869.56561	273.92245	1194.73071	-794.61176	270.84344	1072.59729	-781.85016	264.13049	952.74158	-761.68207	302.06638	803.22278	-782.76025	244.20859	815.98621	-750.08002	265.7124	733.97589	-743.06793	441.73633	952.80511	-1138.38074	442.38483	960.73077	-917.51862	283.30518	979.42255	-1108.66016	290.52762	978.21771	-940.09894	347.05759	639.18732	-1188.37561	320.60977	476.52191	-1164.18176	225.45277	235.60936	-1150.44128	179.6644	69.02011	-1102.75647	136.28107	59.92604	-1057.47302	320.7713	33.91187	-1099.9021	473.78708	637.42554	-854.5238	524.52075	521.93073	-878.24231	517.08405	258.59601	-883.11987	535.3587	73.2589	-925.26929	504.84833	47.39429	-976.11969	687.5069	46.42931	-910.3045	349.53329	1694.73657	-1018.00018	NaN	NaN	NaN	NaN	NaN	NaN	NaN	NaN	NaN	NaN	NaN	NaN	NaN	NaN	NaN	NaN	NaN	NaN	NaN	NaN	NaN	NaN	NaN	NaN	NaN	NaN	NaN	NaN	NaN	NaN
114	1.13	464.5899	1648.10486	-1063.18103	445.17575	1632.05737	-933.69958	329.52185	1605.73938	-1085.72546	311.59595	1594.41638	-958.09308	310.4736	1440.39246	-1036.93335	273.89606	1110.32971	-1032.73767	419.37961	1360.94226	-1023.90466	459.57794	1186.91431	-1033.12146	226.98212	1267.22754	-973.32452	381.80576	1399.87927	-1189.63477	423.06964	1205.95154	-1270.19409	450.68042	1097.47314	-1289.30627	551.23877	987.77368	-1314.17664	670.48828	937.10413	-1274.99402	625.31287	893.47577	-1307.78845	708.06976	859.42493	-1314.11902	351.8143	1388.29797	-869.06403	282.40735	1193.64087	-794.45282	278.15048	1071.63623	-781.70648	270.28741	951.72003	-761.8183	306.50339	801.91022	-781.92303	248.40939	815.26367	-750.07166	268.41534	732.98859	-742.95911	452.47443	950.96735	-1137.87793	453.828	958.86713	-917.09717	293.53992	977.77344	-1107.93701	301.78104	976.4776	-939.28827	355.07407	638.06451	-1188.21753	326.84686	475.57654	-1164.05798	228.21373	235.81654	-1150.55371	180.21819	69.85088	-1102.85156	136.61708	61.22783	-1057.59399	320.87149	33.78823	-1099.9613	480.30405	633.22729	-854.43219	531.93335	518.0733	-878.93823	536.74036	255.82596	-883.05603	565.27094	71.55656	-924.62323	535.10895	45.47449	-975.14343	718.80444	50.31693	-910.67755	360.48987	1692.93884	-1017.16779	NaN	NaN	NaN	NaN	NaN	NaN	NaN	NaN	NaN	NaN	NaN	NaN	NaN	NaN	NaN	NaN	NaN	NaN	NaN	NaN	NaN	NaN	NaN	NaN	NaN	NaN	NaN	NaN	NaN	NaN
